<svg width="98" height="37" viewBox="0 0 98 37" fill="none" xmlns="http://www.w3.org/2000/svg">
<g clip-path="url(#clip0_1_1469)">
<path d="M11 0.811035C5.18991 0.811035 0.478271 5.48068 0.478271 11.239C0.478271 16.9973 5.18991 21.667 11 21.667C16.8101 21.667 21.5217 16.9973 21.5217 11.239C21.5217 5.48068 16.8101 0.811035 11 0.811035ZM15.8041 8.94166C15.8087 9.04429 15.811 9.1474 15.811 9.25098C15.811 12.4138 13.3819 16.0609 8.93968 16.0611H8.93985H8.93968C7.57583 16.0611 6.30668 15.6649 5.2379 14.986C5.42687 15.0081 5.61921 15.0191 5.81396 15.0191C6.94551 15.0191 7.98682 14.6365 8.8135 13.9944C7.75628 13.975 6.86491 13.2831 6.5573 12.332C6.70452 12.36 6.85592 12.3752 7.01117 12.3752C7.2316 12.3752 7.44514 12.3459 7.64807 12.291C6.54301 12.0716 5.71056 11.1037 5.71056 9.94471C5.71056 9.9339 5.71056 9.92424 5.71089 9.9142C6.03631 10.0935 6.40847 10.2014 6.80471 10.2135C6.15625 9.78469 5.72999 9.05161 5.72999 8.22117C5.72999 7.78265 5.8496 7.3718 6.05703 7.01808C7.24798 8.46638 9.02783 9.41885 11.035 9.51894C10.9936 9.34359 10.9723 9.16093 10.9723 8.97316C10.9723 7.65185 12.0538 6.57987 13.3875 6.57987C14.0822 6.57987 14.7097 6.8709 15.1504 7.33616C15.7006 7.22859 16.2172 7.02938 16.684 6.75522C16.5033 7.31388 16.1206 7.78265 15.6219 8.07908C16.1104 8.02116 16.5761 7.89275 17.0087 7.70213C16.6856 8.18219 16.2756 8.60385 15.8041 8.94166Z" fill="black" fill-opacity="0.7"/>
</g>
<g clip-path="url(#clip1_1_1469)">
<path d="M97.5217 11.239C97.5217 5.48067 92.8101 0.811035 87 0.811035C81.1899 0.811035 76.4783 5.48067 76.4783 11.239C76.4783 16.9973 81.1899 21.667 87 21.667C87.0618 21.667 87.1233 21.6657 87.185 21.6646V13.5469H84.9244V10.9359H87.185V9.01453C87.185 6.78624 88.5575 5.57345 90.5631 5.57345C91.5235 5.57345 92.349 5.64441 92.5897 5.67607V8.00492H91.2067C90.1156 8.00492 89.9043 8.51888 89.9043 9.27294V10.9359H92.5133L92.1733 13.5469H89.9043V21.2641C94.3023 20.0145 97.5217 15.9988 97.5217 11.239Z" fill="black" fill-opacity="0.7"/>
</g>
<g clip-path="url(#clip2_1_1469)">
<path d="M51.1428 11.1912C51.1428 12.3034 50.2412 13.2051 49.1289 13.2051C48.0166 13.2051 47.115 12.3034 47.115 11.1912C47.115 10.0789 48.0166 9.17725 49.1289 9.17725C50.2412 9.17725 51.1428 10.0789 51.1428 11.1912Z" fill="black" fill-opacity="0.7"/>
<path d="M53.8385 7.62816C53.7417 7.36582 53.5873 7.12837 53.3866 6.93346C53.1917 6.73277 52.9544 6.57832 52.6919 6.48152C52.479 6.39883 52.1592 6.30042 51.5701 6.27361C50.9329 6.24455 50.7419 6.23828 49.1287 6.23828C47.5153 6.23828 47.3243 6.24438 46.6872 6.27344C46.0982 6.30042 45.7782 6.39883 45.5655 6.48152C45.303 6.57832 45.0655 6.73277 44.8708 6.93346C44.6701 7.12837 44.5156 7.36566 44.4186 7.62816C44.336 7.84105 44.2376 8.16102 44.2107 8.75008C44.1817 9.38713 44.1754 9.57819 44.1754 11.1916C44.1754 12.8047 44.1817 12.9958 44.2107 13.633C44.2376 14.2221 44.336 14.5419 44.4186 14.7548C44.5156 15.0173 44.6699 15.2546 44.8706 15.4495C45.0655 15.6502 45.3028 15.8046 45.5653 15.9014C45.7782 15.9843 46.0982 16.0826 46.6872 16.1095C47.3243 16.1386 47.5152 16.1446 49.1285 16.1446C50.7421 16.1446 50.9331 16.1386 51.5699 16.1095C52.1591 16.0826 52.479 15.9843 52.6919 15.9014C53.2188 15.6982 53.6353 15.2817 53.8385 14.7548C53.9213 14.5419 54.0196 14.2221 54.0466 13.633C54.0757 12.9958 54.0818 12.8047 54.0818 11.1916C54.0818 9.57819 54.0757 9.38713 54.0466 8.75008C54.0198 8.16102 53.9214 7.84105 53.8385 7.62816ZM49.1287 14.2938C47.4151 14.2938 46.0261 12.905 46.0261 11.1914C46.0261 9.47785 47.4151 8.08893 49.1287 8.08893C50.842 8.08893 52.2311 9.47785 52.2311 11.1914C52.2311 12.905 50.842 14.2938 49.1287 14.2938ZM52.3538 8.69131C51.9534 8.69131 51.6288 8.36669 51.6288 7.96628C51.6288 7.56587 51.9534 7.24123 52.3538 7.24123C52.7542 7.24123 53.0789 7.56587 53.0789 7.96628C53.0787 8.36669 52.7542 8.69131 52.3538 8.69131Z" fill="black" fill-opacity="0.7"/>
<path d="M49.1289 0.669434C43.3188 0.669434 38.6072 5.38106 38.6072 11.1912C38.6072 17.0013 43.3188 21.7129 49.1289 21.7129C54.9391 21.7129 59.6507 17.0013 59.6507 11.1912C59.6507 5.38106 54.9391 0.669434 49.1289 0.669434ZM55.1343 13.682C55.105 14.3252 55.0028 14.7643 54.8534 15.1487C54.5396 15.9603 53.8981 16.6018 53.0865 16.9157C52.7022 17.065 52.263 17.1671 51.62 17.1965C50.9757 17.2259 50.7699 17.2329 49.129 17.2329C47.4881 17.2329 47.2824 17.2259 46.638 17.1965C45.995 17.1671 45.5557 17.065 45.1715 16.9157C44.7682 16.764 44.4032 16.5263 44.1013 16.2187C43.794 15.9171 43.5563 15.5519 43.4045 15.1487C43.2552 14.7645 43.153 14.3252 43.1237 13.6822C43.094 13.0378 43.0871 12.832 43.0871 11.1912C43.0871 9.55036 43.094 9.34453 43.1236 8.70026C43.1528 8.05709 43.2549 7.61799 43.4042 7.23364C43.5559 6.8305 43.7939 6.46525 44.1013 6.16358C44.403 5.85613 44.7682 5.61836 45.1714 5.46664C45.5557 5.31733 45.9948 5.21522 46.638 5.18584C47.2823 5.15646 47.4881 5.14939 49.1289 5.14939C50.7698 5.14939 50.9755 5.15646 51.6198 5.186C52.263 5.21522 52.7021 5.31733 53.0865 5.46648C53.4895 5.61819 53.8548 5.85613 54.1567 6.16358C54.4639 6.46541 54.7019 6.8305 54.8534 7.23364C55.0029 7.61799 55.105 8.05709 55.1344 8.70026C55.1638 9.34453 55.1707 9.55036 55.1707 11.1912C55.1707 12.832 55.1638 13.0378 55.1343 13.682Z" fill="black" fill-opacity="0.7"/>
</g>
<defs>
<clipPath id="clip0_1_1469">
<rect width="22" height="22" fill="white"/>
</clipPath>
<clipPath id="clip1_1_1469">
<rect width="22" height="22" fill="white" transform="translate(76)"/>
</clipPath>
<clipPath id="clip2_1_1469">
<rect width="22" height="22" fill="white" transform="translate(38)"/>
</clipPath>
</defs>
</svg>
