<svg width="1236" height="64" viewBox="0 0 1236 64" fill="none" xmlns="http://www.w3.org/2000/svg">
<g clip-path="url(#clip0_1_716)">
<path fill-rule="evenodd" clip-rule="evenodd" d="M67.6192 0.64768C61.8468 2.38483 58.0477 8.92841 58.616 16.1568C59.0744 21.9927 61.3239 25.6343 69.5759 33.8995C78.2433 42.5811 79.9703 45.4975 79.9751 51.4595C79.9869 66.9832 64.8794 63.6403 61.7078 47.417C60.8834 43.2003 60.394 41.9364 59.6737 42.1606C58.595 42.4967 58.7009 63.2667 59.7812 63.2667C60.2645 63.2667 60.6603 63.0162 60.6603 62.7099C60.6603 59.9963 63.3268 59.5256 66.7987 61.6258C78.4564 68.678 90.6724 55.951 86.5764 41.021C85.1188 35.7085 82.7889 32.467 74.5043 24.2263C68.188 17.9425 66.3598 15.0935 66.0117 10.9894C65.5389 5.42066 67.7165 2.26328 71.8098 2.58062C76.9351 2.9787 80.2188 8.01966 81.7161 17.7883C82.2042 20.9726 82.3911 21.4592 83.1268 21.4592C83.9421 21.4592 83.979 21.0522 84.0911 10.9564C84.1996 1.14366 84.157 0.453939 83.4374 0.462505C83.0008 0.4674 82.3846 1.04087 82.0137 1.78811C81.1052 3.61826 79.9154 3.63783 77.0702 1.86968C74.2332 0.106834 70.8651 -0.32878 67.6192 0.64768ZM0.0860672 1.1873C0.0860672 1.64902 0.626006 2.10381 1.5429 2.4142C3.61592 3.11575 3.30347 2.01611 10.602 34.2796L17.2604 63.7133L19.007 63.5918L20.7536 63.4706L21.7167 58.78C22.2462 56.2002 23.9794 47.5735 25.5682 39.6098C28.878 23.0177 28.9019 22.9243 29.2954 24.9262C29.4497 25.7113 30.717 31.493 32.1111 37.7743C33.5056 44.0556 35.3515 52.4069 36.214 56.3327L37.7814 63.4706L39.1739 63.5967C40.9184 63.7549 39.1543 70.6672 51.2795 16.1568C53.8833 4.45073 54.2467 3.43512 56.1289 2.59489C59.5752 1.05678 58.2124 0.45353 51.2909 0.45353C45.3863 0.45353 44.972 0.504107 44.972 1.22401C44.972 1.79178 45.4016 2.06873 46.6062 2.27797C50.8538 3.01582 50.8246 4.20968 46.0157 26.5059C43.9531 36.0685 42.2283 43.9317 42.1821 43.9793C42.1363 44.0275 41.2538 39.9895 40.2211 35.006C39.1887 30.023 37.4838 21.8161 36.4327 16.7687C33.7975 4.11138 33.8843 2.91671 37.4834 2.24289C38.4509 2.0618 38.871 1.7514 38.871 1.2183C38.871 0.495542 38.382 0.45353 29.9373 0.45353C21.6269 0.45353 21.0037 0.504516 21.0037 1.1873C21.0037 1.65432 21.5529 2.10706 22.5151 2.43255C24.2665 3.0256 24.3244 3.17122 26.0832 11.4063C27.13 16.307 27.195 17.1044 26.7292 19.3599C26.0201 22.7967 21.8823 43.7044 21.8461 44.0345C21.773 44.7046 13.6307 6.63207 13.6142 5.54099C13.5893 3.89642 14.6099 2.61813 16.2106 2.28897C17.1091 2.10421 17.5175 1.77546 17.5175 1.23706C17.5175 0.490646 17.107 0.45353 8.80178 0.45353C0.70096 0.45353 0.0860672 0.505332 0.0860672 1.1873ZM100.753 1.2285C100.753 1.82196 101.265 2.11889 102.941 2.49496C106.138 3.21283 105.982 1.80033 105.982 30.021C105.982 60.6162 105.888 61.2273 101.187 61.2273C95.8155 61.2273 94.3338 57.7313 98.3457 54.5234C102.339 51.3301 102.582 47.2758 98.8816 45.5839C92.9289 42.8622 88.2699 50.3891 91.5744 57.3888C95.6412 66.0036 109.711 65.6046 113.776 56.7594C115.348 53.3386 115.552 49.9274 115.56 26.8367C115.57 2.48027 115.496 3.17041 118.191 2.49088C119.466 2.16988 119.927 1.84113 119.927 1.25338C119.927 0.482897 119.574 0.45353 110.34 0.45353C101.211 0.45353 100.753 0.490647 100.753 1.2285Z" fill="black"/>
</g>
<g clip-path="url(#clip1_1_716)">
<path d="M446 21H454.798C456.473 21 457.73 21.416 458.661 22.1092C459.685 22.9412 460.244 24.1429 460.244 25.6218C460.244 27.3319 459.545 28.395 458.149 29.042V29.1345C460.011 29.7353 461.081 31.3992 461.081 33.3866C461.081 35.2815 460.337 36.7605 459.126 37.6849C458.102 38.4244 456.799 38.7479 455.03 38.7479H446V21ZM453.913 27.9328C454.844 27.9328 455.542 27.4244 455.542 26.3613C455.542 25.3445 454.844 24.8361 453.867 24.8361H450.841V27.8866H453.913V27.9328ZM454.332 34.8193C455.403 34.8193 456.194 34.1723 456.194 33.0168C456.194 31.7689 455.356 31.2143 454.332 31.2143H450.888V34.8655H454.332V34.8193Z" fill="black"/>
<path d="M461.873 21H466.481V38.7941H461.873V21Z" fill="black"/>
<path d="M467.412 32.4624C467.412 28.4414 470.019 25.7607 474.068 25.7607C478.118 25.7607 480.678 28.4876 480.678 32.4624C480.678 36.4834 478.118 39.1641 474.068 39.1641C470.019 39.1641 467.412 36.4834 467.412 32.4624ZM476.07 32.4624C476.07 30.2439 475.372 28.8574 473.975 28.8574C472.579 28.8574 471.927 30.2439 471.927 32.4624C471.927 34.6809 472.579 36.1137 473.975 36.1137C475.372 36.0675 476.07 34.6809 476.07 32.4624Z" fill="black"/>
<path d="M481.19 32.4624C481.19 28.4414 483.797 25.7607 487.846 25.7607C491.896 25.7607 494.41 28.4414 494.41 32.4624C494.41 36.4834 491.849 39.1641 487.8 39.1641C483.797 39.1641 481.19 36.4834 481.19 32.4624ZM489.848 32.4624C489.848 30.2439 489.15 28.8574 487.753 28.8574C486.357 28.8574 485.705 30.2439 485.705 32.4624C485.705 34.6809 486.357 36.1137 487.753 36.1137C489.15 36.0675 489.848 34.6809 489.848 32.4624Z" fill="black"/>
<path d="M495.341 26.0841H499.623V27.9791H499.716C500.554 26.5001 501.718 25.7144 503.58 25.7144C505.209 25.7144 506.419 26.5001 507.024 27.8866H507.117C508.141 26.2228 509.491 25.7144 511.074 25.7144C514.053 25.7144 515.31 27.8866 515.31 30.7984V38.748H510.841V31.5841C510.841 30.29 510.422 29.4581 509.305 29.4581C508.188 29.4581 507.629 30.4749 507.629 31.8614V38.748H503.161V31.5841C503.161 30.29 502.742 29.4581 501.625 29.4581C500.507 29.4581 499.949 30.4749 499.949 31.8614V38.748H495.341V26.0841Z" fill="black"/>
<path d="M520.942 37.084H520.895V38.7479H516.613V21H521.081V27.3782H521.175C522.012 26.2689 523.176 25.6681 524.805 25.6681C528.017 25.6681 529.879 28.5336 529.879 32.3697C529.879 36.6681 527.877 39.1639 524.526 39.1639C523.13 39.1639 521.687 38.5168 520.942 37.084ZM525.271 32.3235C525.271 30.2899 524.526 28.9496 523.176 28.9496C521.78 28.9496 520.942 30.2899 520.942 32.3235C520.942 34.3571 521.826 35.6975 523.176 35.6975C524.526 35.6975 525.271 34.4034 525.271 32.3235Z" fill="black"/>
<path d="M530.391 32.416C530.391 28.4412 533.044 25.7144 536.861 25.7144C538.77 25.7144 540.213 26.3152 541.33 27.3782C542.819 28.811 543.471 31.0295 543.424 33.6177H534.86C535.046 35.1891 535.791 36.0211 537.14 36.0211C537.932 36.0211 538.63 35.6513 538.909 34.8194H543.238C542.493 37.7312 540.213 39.1639 537.001 39.1639C533.044 39.1177 530.391 36.437 530.391 32.416ZM534.86 31.0757H538.956C538.863 29.5505 538.025 28.7648 536.954 28.7648C535.697 28.7186 534.999 29.5967 534.86 31.0757Z" fill="black"/>
<path d="M548.498 28.2562H548.591C549.522 26.4999 550.732 25.8066 552.268 25.8066C552.641 25.8066 552.874 25.8529 553.013 25.9453V29.8277H552.92C550.267 29.3655 548.731 30.6134 548.731 33.4789V38.794H544.216V26.084H548.498V28.2562Z" fill="black"/>
<path d="M553.479 38.794H557.808C557.994 39.3486 558.552 39.857 559.623 39.857C561.066 39.857 561.578 38.9789 561.578 37.6386V36.7142H561.485C560.787 37.5461 559.809 38.147 558.413 38.147C555.666 38.147 553.246 36.1133 553.246 32.1386C553.246 28.4873 555.201 25.668 558.18 25.668C559.902 25.668 560.926 26.3612 561.624 27.4243H561.718V26.0377H566V37.0377C566 39.0713 565.302 40.6428 564.231 41.5671C563.114 42.5377 561.531 42.9537 559.716 42.9537C556.272 42.9999 553.898 41.6133 553.479 38.794ZM561.764 31.9537C561.764 30.3823 561.019 29.0881 559.716 29.0881C558.459 29.0881 557.668 30.1974 557.668 31.9537C557.668 33.6638 558.459 34.8654 559.716 34.8654C560.973 34.8654 561.764 33.6175 561.764 31.9537Z" fill="black"/>
</g>
<path d="M918.506 6.60585L917.109 11.5797L915.682 6.83113L917.11 1.51934L918.506 6.60713L918.506 6.60585ZM926.962 18.677C926.888 22.0561 926.146 25.448 925.117 25.448C924.158 25.448 923.566 23.4129 923.239 21.0322L923.111 21.3137V44.6075L924.988 48.5165L926.017 44.8302L926.179 45.332L923.724 54.2174L920.307 47.0113V46.7834C920.66 46.3905 920.807 45.163 920.807 43.206V25.1587C922.251 22.5348 923.816 19.1302 924.771 16.7213C924.959 17.7888 925.385 19.125 925.929 19.125C926.381 19.125 926.734 18.7666 926.91 18.3443L926.976 18.677H926.962ZM920.016 46.8487L917.966 54.2852C916.812 52.8901 916.154 50.9318 916.154 45.9016V23.9876L915.53 22.4209L914.953 24.488L914.809 23.9888L916.816 16.7315L918.951 21.6465V21.7617C918.624 22.4529 918.469 23.0545 918.469 25.448V45.0056C918.469 46.6439 918.767 48.2823 919.274 48.5255L919.884 46.3495L920.027 46.8615L920.016 46.8487ZM915.236 47.0791L913.2 54.2852C912.123 53.1717 911.418 50.8166 911.418 46.1831V25.5491L910.121 22.4772L909.4 25.105V47.5681L910.154 49.1885L908.471 54.2699L906.564 48.7405V48.6253C906.883 48.3181 907.078 47.3965 907.078 44.7726V6.54186C907.078 3.74773 906.935 2.91064 906.773 1.95964L906.887 1.79325C907.24 2.86072 907.46 3.75797 907.545 5.64973H907.578C908.096 2.64569 908.739 0.670732 909.985 0.115234L910.018 0.332826C909.672 1.81757 909.408 3.4303 909.408 5.9262V24.0375L911.399 16.7162C912.123 18.4313 913.476 21.8616 914.271 23.5383V23.7047C913.992 24.1143 913.775 24.8694 913.775 27.3397V44.2735C913.775 46.7438 913.951 47.6269 914.528 48.6253L915.103 46.5531L915.246 47.0522L915.236 47.0791ZM951.512 23.72C951.192 24.232 951.016 24.8976 951.016 27.5855V45.6328C950.064 47.0791 947.903 51.3285 946.812 54.3492C945.644 51.6101 945.034 50.1126 943.828 47.4759V47.3095C944.166 46.7591 944.328 46.1448 944.328 43.3417V25.4467C945.791 22.9892 947.378 19.5205 948.499 16.6714C949.215 18.3225 950.696 21.7016 951.516 23.5447V23.7111L951.512 23.72ZM948.671 49.0886V25.9459C948.128 24.7722 947.242 22.426 946.875 21.475L946.65 21.923V45.1707C946.922 45.8401 947.837 48.0186 948.4 49.5277L948.675 49.0797L948.671 49.0886ZM943.115 51.6485C943.115 53.8244 942.241 56.1284 941.289 58.8034C940.04 62.3233 939.397 64 939.397 64C938.779 62.7841 938.423 62.4385 937.504 62.4385C936.347 62.4385 935.689 62.8609 934.873 64L934.825 63.9488C935.483 59.6738 936.791 56.1283 938.625 56.1283C939.441 56.1283 940.367 57.3059 940.966 58.701C941.124 58.3555 941.623 57.0499 941.623 56.0772C941.623 53.2229 940.084 53.5557 939.86 48.2439L938.144 54.3236C936.134 49.7798 934.983 47.2839 934.983 47.2839V47.0663C935.38 46.4775 935.479 45.7864 935.479 42.3177V25.4339C937.177 22.3172 938.75 19.198 939.702 16.6611L942.685 23.5345V23.7008C942.317 24.3664 942.189 24.9296 942.189 28.0015V43.9804C942.189 47.8036 943.12 48.1632 943.12 51.6383L943.115 51.6485ZM939.827 47.2327V25.7296C938.93 23.7968 938.048 21.3777 938.048 21.3777L937.809 21.8897V44.916L939.43 48.7814L939.834 47.2711L939.827 47.2327ZM934.55 47.0663L932.514 54.2724C931.588 53.2101 930.805 51.5205 930.735 47.0151L928.439 54.2852C927.318 52.6085 926.513 49.0886 926.513 44.6216C926.513 38.6443 927.902 35.5468 929.177 33.9468V33.8956C928.082 32.0397 927.178 28.5327 926.932 24.2832L930.464 16.6931L933.624 24.0784V24.2576C933.242 24.8208 933.08 25.4864 933.08 28.0079V44.3515C933.08 46.1883 933.3 48.1453 933.833 48.6547L934.414 46.5889L934.561 47.0919L934.55 47.0663ZM930.732 32.6541V25.9984L928.744 21.2497L928.49 21.8129C928.571 25.7552 928.729 30.9134 929.486 33.5501C929.762 33.2173 930.408 32.7949 930.739 32.6541H930.732ZM930.732 45.9528V33.3837C929.335 33.9596 928.549 37.4027 928.549 41.7161C928.549 45.3 928.92 47.4759 929.85 48.7558L930.732 45.9656V45.9528ZM906.427 1.85724C906.366 6.72105 905.384 11.2444 903.634 11.2444C903.412 11.2444 903.21 11.1804 903.024 11.0217V49.4675C904.149 48.9709 905.167 47.2877 906.105 44.9979L906.186 45.835C905.15 50.046 903.187 56.945 900.156 56.945C896.028 56.9462 893 47.1802 893 30.5153C892.999 15.2327 896.62 6.74665 898.967 3.58518L899.158 3.9218C896.945 9.03776 895.757 15.2237 895.757 25.9958C895.757 35.493 896.736 42.2511 898.211 46.219L898.709 45.0414V15.5399C898.709 12.8354 898.597 11.9087 898.228 11.5721V11.3493C899.703 8.78689 902.045 4.37106 903.344 0.794887C903.745 2.42554 904.244 3.14231 904.868 3.14231C905.549 3.14231 906.007 2.30395 906.312 1.52062L906.425 1.85724H906.427ZM902.767 49.5801V10.7401C902.182 9.96316 901.773 8.36834 901.404 6.49578L901.323 6.60713V40.0266L898.403 46.7847C899.403 49.2038 900.86 49.639 902.35 49.639C902.491 49.639 902.629 49.6262 902.767 49.5878L902.767 49.5801ZM1005.74 47.2212L1003.72 54.4299C1002.42 52.9758 1001.92 50.3494 1001.92 46.2702V25.3699L1000.85 22.6884L999.904 26.0969V47.6666L1000.66 49.3433L998.978 54.4299L997.085 48.9517V48.7853C997.489 48.1146 997.585 47.4183 997.585 44.8725V26.3196C997.585 24.2512 997.28 22.7447 996.736 22.5207L996.126 24.6966L995.964 24.1386L998.018 16.8173C999.224 17.8796 999.911 20.6315 999.911 24.8656L1002.13 16.8186C1002.87 18.7129 1003.93 21.3496 1004.72 23.0135V23.1799C1004.39 23.6279 1004.28 24.5239 1004.28 26.8662V44.5295C1004.28 46.9614 1004.52 47.9341 1005.03 48.7789L1005.61 46.7054L1005.76 47.2045L1005.74 47.2212ZM996.42 47.2749L994.447 54.4299C993.468 53.8129 992.618 50.5721 992.618 47.1086L990.276 54.4299C989.361 52.2347 988.53 50.2316 987.744 48.6163V48.4474C988.174 47.641 988.259 47.193 988.259 44.3669V26.0406C988.259 24.0976 987.987 23.0225 987.538 22.4631L986.98 24.4727L986.822 23.9607L988.795 16.8058C989.776 17.9705 990.592 20.6072 990.592 24.8438V46.2715L991.702 48.8954L992.617 45.9899V23.5818L991.944 21.9601L993.565 16.8186L995.439 22.1176V22.2199C995.082 22.7959 994.957 23.4487 994.957 25.7398V43.9023C994.957 46.7438 995.071 47.8061 995.744 48.7661L996.273 46.7438L996.435 47.2429L996.42 47.2749ZM976.992 6.76201L975.596 11.7346L974.168 6.986L975.596 1.67677L976.992 6.75817L976.992 6.76201ZM978.5 46.987L976.447 54.4235C975.291 53.0283 974.634 51.07 974.634 46.0398V24.1412L974.008 22.5758L973.43 24.6429L973.286 24.1386L975.291 16.8749L977.425 21.7924V21.9051C977.096 22.5988 976.944 23.0852 976.944 24.7555V45.1515C976.944 46.7937 977.24 48.4231 977.746 48.6714L978.356 46.4929L978.5 46.9959V46.987Z" fill="black"/>
<path d="M973.494 19.1671C973.382 21.9625 972.772 25.7076 971.714 25.7076C971.035 25.7076 970.542 24.3637 970.27 22.8559L970.093 23.4703C970.102 23.7902 970.109 24.4712 970.109 24.8116V45.2652L971.877 48.7288L972.472 46.6041L972.634 47.1083L970.55 54.4847L967.342 47.3899V47.2235C967.714 46.6604 967.824 45.9257 967.824 43.9802V26.9338C967.824 24.0833 967.647 22.7996 966.99 22.3516L966.365 24.5864L966.207 24.0833L968.243 16.8184C969.242 17.7527 969.882 19.775 970.058 22.6293L971.631 16.8696C971.936 18.2647 972.303 19.3271 972.737 19.3271C973.027 19.3271 973.237 19.1607 973.442 18.8279L973.508 19.1607L973.494 19.1671Z" fill="black"/>
<path d="M967.435 1.56538C967.208 7.74369 966.478 13.2449 964.596 13.2449C964.372 13.2449 964.035 13.1336 963.89 13.0785V49.7362C965.03 49.1769 966.34 47.2557 966.89 45.7134L966.971 46.4391C966.112 50.7269 963.745 57.2803 960.811 57.2803C957.102 57.2803 954.234 48.7814 954.234 35.0476C954.234 23.2208 957.039 14.6836 958.87 12.4181L959.031 12.6485C957.752 16.7059 956.848 22.2353 956.848 30.9261C956.848 38.1834 957.651 42.7144 958.887 46.2471L959.576 45.0184V22.7472C959.576 20.3409 959.352 19.5602 959.095 19.3938V19.1762L962.19 13.4804V41.3065L959.079 46.7847C959.913 49.0246 961.245 50.2021 962.511 50.2021C962.946 50.2021 963.147 50.1382 963.634 49.8694V13.0824C961.325 12.4117 958.865 9.00188 956.978 9.00188C955.652 9.00188 954.652 10.8988 954.652 14.4199C954.652 16.5472 955.131 17.4598 955.437 17.9398L955.181 18.4441C954.618 17.5481 953.913 15.4106 953.913 10.8924C953.913 4.31343 955.434 0 957.475 0C960.299 0 962.952 5.19659 965.447 5.19659C966.216 5.19659 966.93 3.77585 967.292 1.17755L967.435 1.57434L967.435 1.56538ZM1012.99 27.4946C1011.66 30.3412 1010.07 34.007 1008.85 37.0494V44.93L1010.83 48.7289L1011.92 44.8161L1012.06 45.2641L1009.51 54.4285L1005.99 46.9408V46.7719C1006.34 46.4391 1006.53 45.6583 1006.53 42.868V25.5363C1007.96 23.3015 1009.47 19.6152 1010.56 16.7648L1013 27.4946H1012.99ZM1010.84 31.3472C1010.51 29.7178 1009.44 24.2179 1008.98 21.6836L1008.85 21.9614V35.987L1010.84 31.3485V31.3472ZM986.538 23.8621C986.144 24.4304 986.056 25.4646 986.056 27.2706V45.8234C985.09 47.2647 982.928 51.3618 981.837 54.4311C981.062 52.5521 979.831 49.6095 978.836 47.5578V47.3914C979.269 46.7732 979.366 45.9194 979.366 42.8604V6.92964C979.366 4.41454 979.238 3.12819 979.077 2.12344L979.173 1.95704C979.51 2.96308 979.735 4.13551 979.831 5.75593H979.863C980.38 2.75445 981.023 0.834527 982.27 0.277749L982.286 0.614375C981.939 2.08632 981.693 3.43026 981.693 6.31015V24.1398L983.682 16.8185C984.373 18.5593 985.771 22.0407 986.538 23.6919V23.8582V23.8621ZM983.714 49.1756V25.7027L982.414 22.6308L981.693 25.1996V45.0939L983.473 49.6198L983.712 49.1718L983.714 49.1756Z" fill="black"/>
<g clip-path="url(#clip2_1_716)">
<path d="M718.777 44.2118C718.777 43.2423 719.412 42.8092 720.264 42.8092C720.72 42.8092 721.057 42.9123 721.355 43.0567V39.942C720.899 39.7151 720.264 39.5913 719.61 39.5913C716.815 39.5913 715.169 41.3034 715.169 44.1293V44.3975H713.841V47.4297H715.169V54.7111H718.777V47.4297H721.216V44.3975H718.777V44.2118Z" fill="black"/>
<path d="M726.292 54.7112V44.3976H722.663V54.7112H726.292ZM726.51 41.4891C726.51 40.3752 725.617 39.4058 724.468 39.4058C723.357 39.4058 722.445 40.3546 722.445 41.4891C722.445 42.6236 723.357 43.5725 724.468 43.5725C725.617 43.5725 726.51 42.603 726.51 41.4891Z" fill="black"/>
<path d="M731.4 49.2245C731.4 48.1518 731.916 47.5537 732.709 47.5537C733.502 47.5537 733.978 48.1312 733.978 49.1832V54.7113H737.606V48.1518C737.606 45.6559 736.298 44.1089 734.156 44.1089C732.947 44.1089 731.956 44.6452 731.4 45.6559V44.3977H727.772V54.7113H731.4V49.2245Z" fill="black"/>
<path d="M743.539 44.1914C740.541 44.1914 738.617 46.8936 738.617 49.5958C738.617 52.6074 740.727 55.0001 743.498 55.0001C745.566 55.0001 746.352 53.7419 746.352 53.7419V54.732H749.847V44.4389H746.352V45.3672C746.352 45.3672 745.463 44.1914 743.539 44.1914ZM744.284 47.5124C745.69 47.5124 746.393 48.6057 746.393 49.5958C746.393 50.6684 745.628 51.7204 744.284 51.7204C743.188 51.7204 742.174 50.8128 742.174 49.637C742.174 48.4613 742.981 47.5124 744.284 47.5124Z" fill="black"/>
<path d="M755.192 49.2245C755.192 48.1518 755.707 47.5537 756.5 47.5537C757.293 47.5537 757.769 48.1312 757.769 49.1832V54.7113H761.397V48.1518C761.397 45.6559 760.089 44.1089 757.948 44.1089C756.738 44.1089 755.747 44.6452 755.192 45.6559V44.3977H751.564V54.7113H755.192V49.2245Z" fill="black"/>
<path d="M762.468 49.5545C762.468 52.8961 764.768 55.0001 767.762 55.0001C768.535 55.0001 769.367 54.8351 770.141 54.4226V50.9984C769.586 51.411 768.991 51.6172 768.337 51.6172C767.068 51.6172 766.136 50.7921 766.136 49.5545C766.136 48.3169 767.068 47.4918 768.337 47.4918C768.971 47.4918 769.566 47.6774 770.141 48.0693V44.6452C769.447 44.2945 768.594 44.1089 767.821 44.1089C764.708 44.1089 762.468 46.3985 762.468 49.5545Z" fill="black"/>
<path d="M778.034 51.0809C777.657 51.7204 777.181 51.9885 776.388 51.9885C775.436 51.9885 774.643 51.3903 774.564 50.5034H781.424C781.444 50.3177 781.464 50.0702 781.464 49.7402C781.464 46.3366 779.382 44.1089 776.289 44.1089C773.295 44.1089 771.015 46.4398 771.015 49.5545C771.015 52.793 773.236 55.0001 776.408 55.0001C778.648 55.0001 780.333 54.01 781.146 52.2154L778.034 51.0809ZM774.584 48.3375C774.663 47.5743 775.337 46.9967 776.269 46.9967C777.201 46.9967 777.875 47.533 777.954 48.3375H774.584Z" fill="black"/>
<path d="M670 18.0698H677.139L681.296 28.6638L685.507 18.0698H692.459L681.992 43.1492H674.996L677.861 36.5035L670 18.0698Z" fill="black"/>
<path d="M699.7 17.6479C694.336 17.6479 690.945 22.4399 690.945 27.2119C690.945 32.5818 694.663 36.8391 699.598 36.8391C703.28 36.8391 704.668 34.6048 704.668 34.6048V36.3453H710.895V18.0698H704.668V19.7312C704.668 19.7312 703.119 17.6479 699.7 17.6479ZM701.024 23.521C703.499 23.521 704.776 25.4717 704.776 27.2319C704.776 29.1274 703.408 30.9874 701.024 30.9874C699.049 30.9874 697.263 29.3791 697.263 27.3126C697.263 25.2169 698.699 23.521 701.024 23.521Z" fill="black"/>
<path d="M713.039 36.3452V10H719.552V19.7945C719.552 19.7945 721.099 17.6502 724.339 17.6502C728.302 17.6502 730.624 20.5915 730.624 24.7944V36.3452H724.159V26.3767C724.159 24.9544 723.478 23.5803 721.938 23.5803C720.369 23.5803 719.552 24.9752 719.552 26.3767V36.3452H713.039Z" fill="black"/>
<path d="M741.728 17.6499C735.585 17.6499 731.927 22.3027 731.927 27.2877C731.927 32.9607 736.356 36.8389 741.751 36.8389C746.98 36.8389 751.556 33.1367 751.556 27.3829C751.556 21.0871 746.765 17.6499 741.728 17.6499ZM741.787 23.5745C743.956 23.5745 745.458 25.3748 745.458 27.2945C745.458 28.9318 744.059 30.9514 741.787 30.9514C739.704 30.9514 738.142 29.2878 738.142 27.2766C738.142 25.3391 739.441 23.5745 741.787 23.5745Z" fill="black"/>
<path d="M762.406 17.6499C756.263 17.6499 752.605 22.3027 752.605 27.2877C752.605 32.9607 757.034 36.8389 762.429 36.8389C767.658 36.8389 772.234 33.1367 772.234 27.3829C772.234 21.0871 767.443 17.6499 762.406 17.6499ZM762.465 23.5745C764.635 23.5745 766.136 25.3748 766.136 27.2945C766.136 28.9318 764.737 30.9514 762.465 30.9514C760.383 30.9514 758.82 29.2878 758.82 27.2766C758.82 25.3391 760.119 23.5745 762.465 23.5745Z" fill="black"/>
<path d="M777.373 36.7329C779.762 36.7329 781.698 34.8042 781.698 32.4251C781.698 30.0459 779.762 28.1172 777.373 28.1172C774.985 28.1172 773.049 30.0459 773.049 32.4251C773.049 34.8042 774.985 36.7329 777.373 36.7329Z" fill="black"/>
<path d="M783.119 26.535H775.333L782.243 10H790L783.119 26.535Z" fill="black"/>
</g>
<g clip-path="url(#clip3_1_716)">
<path d="M1235.67 62.7078L1116.17 62.8331L1116.08 19.8425L1176 1.04199L1235.67 20.0097V62.7078Z" fill="black"/>
<path d="M1136.06 34.2558V32.5429C1136.06 30.7046 1135.31 30.1197 1134.43 30.4122C1133.1 30.83 1132.64 31.7491 1132.64 33.3785V44.4917C1132.64 46.1211 1133.05 46.7895 1134.43 46.3717C1135.64 45.9957 1136.06 45.0766 1136.06 43.6561V41.024L1139.39 39.9795V42.4863C1139.39 45.5779 1137.77 48.586 1134.43 49.6305C1130.93 50.7167 1129.3 48.7114 1129.3 45.6197V34.3394C1129.3 31.2477 1130.93 28.2397 1134.43 27.1534C1137.77 26.1089 1139.39 28.3232 1139.39 31.6238V33.2531L1136.06 34.2558Z" fill="white"/>
<path d="M1145.98 23.8532L1149.31 22.8087V39.3114C1149.31 40.9408 1149.9 41.5257 1151.11 41.1497C1152.32 40.7737 1152.9 39.8128 1152.9 38.1834V21.6807L1156.24 20.6362V37.0136C1156.24 40.7737 1154.28 43.4476 1151.11 44.4085C1147.94 45.3694 1145.98 43.9489 1145.98 40.1888V23.8532Z" fill="white"/>
<path d="M1166.2 27.3624L1167.37 26.9864C1169.16 26.4433 1169.83 25.4406 1169.83 22.8503C1169.83 20.26 1169.16 19.7169 1167.37 20.26L1166.2 20.636V27.3624ZM1166.2 39.4366L1162.87 40.481V18.5889L1167.54 17.1266C1171.29 15.9568 1173.16 17.1684 1173.16 21.8058C1173.16 25.3153 1171.96 27.1118 1170.83 28.0727L1173.67 37.0969L1170.25 38.1414L1167.87 29.8274C1167.45 30.0363 1166.74 30.2452 1166.16 30.4541L1166.2 39.4366Z" fill="white"/>
<path d="M1183.3 35.5511L1184.67 35.9689C1186.47 36.512 1187.09 35.5928 1187.09 33.3786C1187.09 31.1225 1186.34 29.7856 1184.34 29.1589L1183.26 28.8247L1183.3 35.5511ZM1183.3 25.733L1184.51 26.109C1185.8 26.485 1186.76 25.8583 1186.76 24.0201C1186.76 22.0147 1186.05 20.7195 1184.59 20.26L1183.3 19.884V25.733ZM1179.96 15.7061L1184.92 17.2519C1188.51 18.3799 1190.09 20.9284 1190.09 24.6468C1190.09 26.5268 1189.38 28.2815 1187.8 28.4904C1189.51 29.8691 1190.51 31.7074 1190.51 34.5066C1190.51 38.0996 1189.09 40.3974 1185.3 39.1858L1180 37.5147L1179.96 15.7061Z" fill="white"/>
<path d="M1196.85 42.9044V21.0122L1205.77 23.8114V27.0702L1200.18 25.3154V30.9556L1204.48 32.2925V35.5513L1200.18 34.2144V40.6483L1206.15 42.5284V45.7871L1196.85 42.9044Z" fill="white"/>
<path d="M1215.78 45.7454L1216.95 46.1214C1218.74 46.6645 1219.36 46.1214 1219.36 43.8236V34.2562C1219.36 31.9583 1218.74 30.9974 1216.95 30.4543L1215.78 30.0783V45.7454ZM1212.44 25.9004L1217.4 27.4462C1220.82 28.5325 1222.7 31.2063 1222.7 35.7185V44.3667C1222.7 48.8371 1220.86 50.4247 1217.4 49.3384L1212.44 47.7926V25.9004Z" fill="white"/>
<path d="M1176 1L1175.08 1.29245L1118.17 19.0903L1116 19.7588V62.9582H1235.96V19.7588L1233.79 19.0903L1176.92 1.29245L1176 1ZM1176 4.25876L1232.91 22.0566V59.9084H1119.13V22.0148L1176 4.25876Z" fill="white"/>
</g>
<g clip-path="url(#clip4_1_716)">
<path d="M234.553 18.8885H237.181C238.782 18.6559 240.417 18.8604 241.909 19.4798C243.78 20.5901 245.137 22.3775 245.69 24.4607C246.082 25.5525 246.082 25.5525 247.028 25.1658H247.766V16.5231H223.023V18.047H224.038C224.479 18.0439 224.915 18.1384 225.314 18.3234C225.713 18.5084 226.065 18.7792 226.344 19.1159C227.289 20.617 227.45 22.3001 227.45 31.0565C227.45 40.3588 227.243 42.6332 226.344 43.7931C226.122 44.0913 225.834 44.3362 225.503 44.5095C225.171 44.6828 224.805 44.78 224.43 44.7938C223.023 45.044 223.023 45.0213 223.023 45.6354C222.945 45.8407 222.945 46.0668 223.023 46.2722H238.634C238.737 46.0713 238.791 45.8492 238.791 45.624C238.791 45.3987 238.737 45.1767 238.634 44.9758C238.256 44.872 237.871 44.796 237.481 44.7483C237.06 44.6989 236.643 44.6152 236.236 44.4982C235.653 44.0781 235.19 43.5152 234.895 42.865C234.6 42.2148 234.482 41.4999 234.553 40.7909C234.322 39.2898 234.207 36.5378 234.207 34.2634V32.4666H235.129C236.278 32.4319 237.427 32.5544 238.542 32.8305C239.076 33.1561 239.531 33.594 239.874 34.113C240.216 34.632 240.439 35.2192 240.525 35.8327L240.733 36.5378H242.139V26.4622H240.848L240.64 27.4402C240.553 28.0676 240.318 28.6661 239.953 29.1875C239.589 29.7089 239.105 30.1388 238.542 30.4424C237.996 30.6026 237.421 30.6414 236.859 30.5561H234.207V28.0998C234.207 25.5525 234.345 20.1849 234.437 19.3434L234.553 18.8885ZM342.47 36.9244C341.38 35.1941 339.68 33.9223 337.696 33.3536C336.176 32.8849 334.771 32.1105 333.569 31.0792C333.298 30.8212 333.096 30.5019 332.979 30.1491C332.863 29.7962 332.836 29.4206 332.9 29.055C332.902 28.3379 333.192 27.6508 333.707 27.1445C334.056 26.7839 334.498 26.5237 334.985 26.3915C335.473 26.2593 335.987 26.2601 336.474 26.394C337.482 26.6774 338.394 27.2244 339.112 27.9771C339.831 28.7299 340.33 29.6603 340.556 30.6698C340.925 31.6933 340.971 31.6933 341.639 31.4204L342.055 31.2612V25.5979L341.755 25.4615C339.485 24.6751 337.077 24.3501 334.676 24.5062C332.608 24.5579 330.634 25.369 329.141 26.7806C328.464 27.4058 327.934 28.1695 327.587 29.0181C327.241 29.8667 327.087 30.7797 327.135 31.6933C327.148 33.0901 327.71 34.4273 328.703 35.4233C329.801 36.4877 331.147 37.2689 332.623 37.6977C336.198 39.0851 337.235 39.9721 337.235 41.5869C337.251 42.2679 337.031 42.9338 336.612 43.4752C336.193 44.0167 335.599 44.4014 334.929 44.5664C334.124 44.7409 333.29 44.7409 332.485 44.5664C331.431 44.1628 330.49 43.5168 329.74 42.6821C328.99 41.8474 328.452 40.8482 328.173 39.7674L327.873 39.0396H327.458C327.26 39.0542 327.065 39.1002 326.882 39.1761H326.651V45.6354H327.043C328.601 46.1465 330.208 46.4971 331.839 46.6816H334.145C335.145 46.754 336.151 46.6617 337.12 46.4087C338.351 46.1847 339.5 45.647 340.455 44.849C341.41 44.051 342.136 43.0205 342.562 41.8599C342.837 41.2116 342.978 40.5157 342.977 39.8129C343.068 38.8229 342.893 37.8267 342.47 36.9244ZM320.748 25.1658C319.366 24.5936 317.877 24.316 316.379 24.3513C314.881 24.3866 313.407 24.7339 312.055 25.3705C310.783 25.9839 309.656 26.8534 308.747 27.9229C307.837 28.9923 307.165 30.2381 306.774 31.5796C306.275 33.0431 306.064 34.5869 306.151 36.1284C306.135 36.9671 306.204 37.8053 306.359 38.6302C306.731 40.6585 307.724 42.5259 309.204 43.9814C310.684 45.4369 312.58 46.4109 314.637 46.7726C315.977 46.9391 317.333 46.9391 318.673 46.7726C320.063 46.5309 321.393 46.0291 322.593 45.2942C323.585 44.7457 324.424 43.9646 325.037 43.0198C324.998 42.8716 324.928 42.7327 324.833 42.6115C324.738 42.4904 324.619 42.3894 324.483 42.3147C324.22 42.4087 323.972 42.5389 323.746 42.7014C322.599 43.4469 321.244 43.8207 319.872 43.7704C318.961 43.8311 318.047 43.6912 317.198 43.3608C316.348 43.0303 315.584 42.5176 314.96 41.8599C314.477 41.4178 314.079 40.894 313.784 40.3133C313.067 38.8994 312.681 37.345 312.654 35.7645V34.8775H325.429V34.4226C325.457 33.9681 325.457 33.5124 325.429 33.058C325.424 31.452 324.989 29.8759 324.167 28.4897C323.344 27.1035 322.165 25.9567 320.748 25.1658ZM314.314 33.0352H312.7V31.6933C313.231 28.259 314.545 26.212 316.159 26.212C317.773 26.212 318.465 28.2362 318.765 31.9435V32.9897H317.381L314.314 33.0352ZM281.155 24.4153C280.358 24.3848 279.566 24.5488 278.849 24.8929C277.291 25.6394 276.032 26.881 275.275 28.4182L274.975 28.9641V24.4153H274.86C274.583 24.4153 266.051 26.0983 265.775 26.212C265.498 26.3258 265.59 26.3485 265.59 26.7579C265.59 27.1673 265.59 27.2355 265.775 27.2583L266.674 27.4402C266.926 27.4463 267.173 27.5089 267.397 27.6231C267.621 27.7374 267.815 27.9004 267.965 28.0998C268.542 28.8503 268.657 30.1695 268.657 35.7872C268.771 38.3163 268.663 40.8503 268.334 43.361C268.257 43.7395 268.062 44.0851 267.777 44.3499C267.492 44.6147 267.131 44.7857 266.743 44.8393L265.959 44.9985H265.659V45.6354C265.576 45.8475 265.576 46.0828 265.659 46.2949H278.55V45.6354C278.594 45.4177 278.594 45.1934 278.55 44.9758C277.773 44.946 277.002 44.847 276.244 44.6801C275.831 44.4671 275.493 44.1358 275.275 43.7299C275.057 43.3239 274.968 42.8622 275.022 42.4057C274.837 41.0866 274.745 37.2201 274.791 34.2634C274.837 31.3067 274.791 31.1247 275.045 30.92C275.816 30.3365 276.771 30.0387 277.743 30.0785C278.658 30.0982 279.557 30.3238 280.371 30.7381C280.653 30.8926 280.956 31.0075 281.271 31.0792C281.271 31.0792 283.576 25.5752 283.576 25.325C283.281 24.9868 282.905 24.7265 282.483 24.5676C282.06 24.4088 281.604 24.3564 281.155 24.4153ZM265.613 33.9677C265.533 32.3424 265.06 30.7597 264.234 29.3513C263.407 27.9429 262.252 26.7496 260.863 25.8709C259.213 24.9928 257.377 24.5087 255.503 24.4574C253.629 24.406 251.768 24.7889 250.071 25.5752C247.672 26.8231 245.861 28.9444 245.022 31.4886C244.155 34.3371 244.155 37.3738 245.022 40.2223C245.476 41.7791 246.325 43.1959 247.489 44.339C248.938 45.734 250.807 46.6278 252.816 46.8863C254.105 46.9926 255.4 46.9926 256.689 46.8863C257.164 46.8151 257.634 46.7164 258.096 46.5906C259.973 46.0727 261.662 45.0384 262.964 43.6085C264.267 42.1786 265.13 40.4124 265.452 38.5165C265.682 37.0113 265.736 35.4851 265.613 33.9677ZM256.021 45.3397C253.715 46.022 251.985 43.8158 251.409 39.1761C251.197 36.747 251.197 34.3044 251.409 31.8753C251.87 28.1453 253.046 26.2575 254.868 26.2575C255.235 26.2351 255.603 26.2997 255.94 26.4461C256.277 26.5925 256.573 26.8164 256.805 27.099C258.35 28.6229 259.111 31.6478 259.111 36.1966C259.303 38.771 258.892 41.3544 257.912 43.7476C257.479 44.4456 256.809 44.9694 256.021 45.226V45.3397ZM297.527 24.8701C296.877 24.7876 296.218 24.7876 295.567 24.8701C294.318 24.8691 293.084 25.1328 291.947 25.6434L291.232 25.9391V21.0037C291.357 19.3381 291.357 17.6656 291.232 16C290.955 16 282.147 17.6603 282.008 17.7285C281.94 17.8965 281.94 18.0837 282.008 18.2517C282.008 18.7293 282.008 18.7065 283.046 18.934C283.337 18.9984 283.617 19.1058 283.876 19.2524C284.326 19.6699 284.626 20.2209 284.729 20.8217C284.992 22.5526 285.077 24.3051 284.983 26.0528V46.022L285.606 46.1585C286.528 46.3632 289.134 46.7953 289.987 46.8863C291.691 47.0199 293.402 47.0199 295.106 46.8863C296.997 46.6958 298.8 45.9999 300.319 44.8737C301.839 43.7475 303.018 42.2336 303.73 40.4952C304.155 39.3795 304.449 38.2196 304.606 37.0382C304.744 35.4378 304.69 33.8271 304.445 32.2392C304.198 30.4593 303.401 28.7975 302.164 27.4793C300.926 26.161 299.308 25.2501 297.527 24.8701ZM291.486 44.953C291.486 44.6574 291.255 34.6955 291.301 30.7153V27.5994L291.97 27.4402C292.421 27.3764 292.879 27.3764 293.331 27.4402C293.829 27.3902 294.331 27.502 294.76 27.7586C295.621 28.3448 296.336 29.1161 296.852 30.0143C297.367 30.9125 297.669 31.9143 297.735 32.9442C297.903 34.6004 297.903 36.269 297.735 37.9252C297.597 40.3323 296.656 42.627 295.06 44.4527C294.607 44.8772 294.038 45.1618 293.423 45.2715C292.957 45.3513 292.482 45.3513 292.016 45.2715C291.578 45.2715 291.578 45.135 291.578 44.953H291.486Z" fill="black"/>
</g>
<defs>
<clipPath id="clip0_1_716">
<rect width="120" height="64" fill="white"/>
</clipPath>
<clipPath id="clip1_1_716">
<rect width="120" height="22" fill="white" transform="translate(446 21)"/>
</clipPath>
<clipPath id="clip2_1_716">
<rect width="120" height="45" fill="white" transform="translate(670 10)"/>
</clipPath>
<clipPath id="clip3_1_716">
<rect width="120" height="62" fill="white" transform="translate(1116 1)"/>
</clipPath>
<clipPath id="clip4_1_716">
<rect width="120" height="31" fill="white" transform="translate(223 16)"/>
</clipPath>
</defs>
</svg>
